<svg id="visual" viewBox="0 0 960 300" width="960" height="300" xmlns="http://www.w3.org/2000/svg" xmlns:xlink="http://www.w3.org/1999/xlink" version="1.1"><path d="M0 122L22.8 119.3C45.7 116.7 91.3 111.3 137 110.2C182.7 109 228.3 112 274 111.3C319.7 110.7 365.3 106.3 411.2 104.5C457 102.7 503 103.3 548.8 105.8C594.7 108.3 640.3 112.7 686 111.5C731.7 110.3 777.3 103.7 823 99.7C868.7 95.7 914.3 94.3 937.2 93.7L960 93L960 0L937.2 0C914.3 0 868.7 0 823 0C777.3 0 731.7 0 686 0C640.3 0 594.7 0 548.8 0C503 0 457 0 411.2 0C365.3 0 319.7 0 274 0C228.3 0 182.7 0 137 0C91.3 0 45.7 0 22.8 0L0 0Z" fill="#dd3f31"></path><path d="M0 91L22.8 86.5C45.7 82 91.3 73 137 70.5C182.7 68 228.3 72 274 77C319.7 82 365.3 88 411.2 88.8C457 89.7 503 85.3 548.8 82C594.7 78.7 640.3 76.3 686 77C731.7 77.7 777.3 81.3 823 80.3C868.7 79.3 914.3 73.7 937.2 70.8L960 68L960 0L937.2 0C914.3 0 868.7 0 823 0C777.3 0 731.7 0 686 0C640.3 0 594.7 0 548.8 0C503 0 457 0 411.2 0C365.3 0 319.7 0 274 0C228.3 0 182.7 0 137 0C91.3 0 45.7 0 22.8 0L0 0Z" fill="#b21b4d"></path><path d="M0 49L22.8 49.2C45.7 49.3 91.3 49.7 137 51.3C182.7 53 228.3 56 274 59.5C319.7 63 365.3 67 411.2 69.5C457 72 503 73 548.8 70.3C594.7 67.7 640.3 61.3 686 60C731.7 58.7 777.3 62.3 823 64.7C868.7 67 914.3 68 937.2 68.5L960 69L960 0L937.2 0C914.3 0 868.7 0 823 0C777.3 0 731.7 0 686 0C640.3 0 594.7 0 548.8 0C503 0 457 0 411.2 0C365.3 0 319.7 0 274 0C228.3 0 182.7 0 137 0C91.3 0 45.7 0 22.8 0L0 0Z" fill="#781955"></path><path d="M0 42L22.8 40.3C45.7 38.7 91.3 35.3 137 37.3C182.7 39.3 228.3 46.7 274 46.5C319.7 46.3 365.3 38.7 411.2 36.5C457 34.3 503 37.7 548.8 39.7C594.7 41.7 640.3 42.3 686 43.7C731.7 45 777.3 47 823 49.3C868.7 51.7 914.3 54.3 937.2 55.7L960 57L960 0L937.2 0C914.3 0 868.7 0 823 0C777.3 0 731.7 0 686 0C640.3 0 594.7 0 548.8 0C503 0 457 0 411.2 0C365.3 0 319.7 0 274 0C228.3 0 182.7 0 137 0C91.3 0 45.7 0 22.8 0L0 0Z" fill="#3c1947"></path><path d="M0 29L22.8 30C45.7 31 91.3 33 137 31.8C182.7 30.7 228.3 26.3 274 23.5C319.7 20.7 365.3 19.3 411.2 20.3C457 21.3 503 24.7 548.8 24.5C594.7 24.3 640.3 20.7 686 19.5C731.7 18.3 777.3 19.7 823 19.7C868.7 19.7 914.3 18.3 937.2 17.7L960 17L960 0L937.2 0C914.3 0 868.7 0 823 0C777.3 0 731.7 0 686 0C640.3 0 594.7 0 548.8 0C503 0 457 0 411.2 0C365.3 0 319.7 0 274 0C228.3 0 182.7 0 137 0C91.3 0 45.7 0 22.8 0L0 0Z" fill="#0c0c28"></path></svg>