<svg id="visual" viewBox="0 0 960 300" width="960" height="300" xmlns="http://www.w3.org/2000/svg" xmlns:xlink="http://www.w3.org/1999/xlink" version="1.1"><rect x="0" y="0" width="960" height="300" fill="#dd3f31"></rect><path d="M0 105L22.8 108C45.7 111 91.3 117 137 112.2C182.7 107.3 228.3 91.7 274 86.2C319.7 80.7 365.3 85.3 411.2 85.7C457 86 503 82 548.8 84.2C594.7 86.3 640.3 94.7 686 99.5C731.7 104.3 777.3 105.7 823 104.5C868.7 103.3 914.3 99.7 937.2 97.8L960 96L960 0L937.2 0C914.3 0 868.7 0 823 0C777.3 0 731.7 0 686 0C640.3 0 594.7 0 548.8 0C503 0 457 0 411.2 0C365.3 0 319.7 0 274 0C228.3 0 182.7 0 137 0C91.3 0 45.7 0 22.8 0L0 0Z" fill="#dd3f31"></path><path d="M0 77L22.8 80.8C45.7 84.7 91.3 92.3 137 93.2C182.7 94 228.3 88 274 81.5C319.7 75 365.3 68 411.2 70.3C457 72.7 503 84.3 548.8 87.5C594.7 90.7 640.3 85.3 686 81.3C731.7 77.3 777.3 74.7 823 71.5C868.7 68.3 914.3 64.7 937.2 62.8L960 61L960 0L937.2 0C914.3 0 868.7 0 823 0C777.3 0 731.7 0 686 0C640.3 0 594.7 0 548.8 0C503 0 457 0 411.2 0C365.3 0 319.7 0 274 0C228.3 0 182.7 0 137 0C91.3 0 45.7 0 22.8 0L0 0Z" fill="#b21b4d"></path><path d="M0 50L22.8 54.5C45.7 59 91.3 68 137 69.8C182.7 71.7 228.3 66.3 274 66.3C319.7 66.3 365.3 71.7 411.2 72.3C457 73 503 69 548.8 65.3C594.7 61.7 640.3 58.3 686 57.8C731.7 57.3 777.3 59.7 823 62.8C868.7 66 914.3 70 937.2 72L960 74L960 0L937.2 0C914.3 0 868.7 0 823 0C777.3 0 731.7 0 686 0C640.3 0 594.7 0 548.8 0C503 0 457 0 411.2 0C365.3 0 319.7 0 274 0C228.3 0 182.7 0 137 0C91.3 0 45.7 0 22.8 0L0 0Z" fill="#781955"></path><path d="M0 35L22.8 36.3C45.7 37.7 91.3 40.3 137 43.5C182.7 46.7 228.3 50.3 274 49C319.7 47.7 365.3 41.3 411.2 38.7C457 36 503 37 548.8 36.8C594.7 36.7 640.3 35.3 686 36.5C731.7 37.7 777.3 41.3 823 40.5C868.7 39.7 914.3 34.3 937.2 31.7L960 29L960 0L937.2 0C914.3 0 868.7 0 823 0C777.3 0 731.7 0 686 0C640.3 0 594.7 0 548.8 0C503 0 457 0 411.2 0C365.3 0 319.7 0 274 0C228.3 0 182.7 0 137 0C91.3 0 45.7 0 22.8 0L0 0Z" fill="#3c1947"></path><path d="M0 23L22.8 21.3C45.7 19.7 91.3 16.3 137 16.8C182.7 17.3 228.3 21.7 274 24.5C319.7 27.3 365.3 28.7 411.2 27.8C457 27 503 24 548.8 21C594.7 18 640.3 15 686 16C731.7 17 777.3 22 823 25.8C868.7 29.7 914.3 32.3 937.2 33.7L960 35L960 0L937.2 0C914.3 0 868.7 0 823 0C777.3 0 731.7 0 686 0C640.3 0 594.7 0 548.8 0C503 0 457 0 411.2 0C365.3 0 319.7 0 274 0C228.3 0 182.7 0 137 0C91.3 0 45.7 0 22.8 0L0 0Z" fill="#0c0c28"></path></svg>