<svg id="visual" viewBox="0 0 960 300" width="960" height="300" xmlns="http://www.w3.org/2000/svg" xmlns:xlink="http://www.w3.org/1999/xlink" version="1.1"><path d="M0 67L22.8 73.2C45.7 79.3 91.3 91.7 137 92.3C182.7 93 228.3 82 274 74.8C319.7 67.7 365.3 64.3 411.2 59.5C457 54.7 503 48.3 548.8 51.7C594.7 55 640.3 68 686 72C731.7 76 777.3 71 823 63.8C868.7 56.7 914.3 47.3 937.2 42.7L960 38L960 0L937.2 0C914.3 0 868.7 0 823 0C777.3 0 731.7 0 686 0C640.3 0 594.7 0 548.8 0C503 0 457 0 411.2 0C365.3 0 319.7 0 274 0C228.3 0 182.7 0 137 0C91.3 0 45.7 0 22.8 0L0 0Z" fill="#dd3f31" stroke-linecap="round" stroke-linejoin="miter"></path></svg>